<svg width="440" height="157" viewBox="0 0 440 157" fill="none" xmlns="http://www.w3.org/2000/svg">
<path d="M134 68.625V38H160.25V42.375H164.625V55.5H160.25V59.875H142.75V68.625H134ZM142.75 55.5H155.875V42.375H142.75V55.5ZM173.375 68.625V64.25H182.125V42.375H173.375V38H199.625V42.375H190.875V64.25H199.625V68.625H173.375ZM204 68.625V59.875H208.375V55.5H212.75V51.125H208.375V46.75H204V38H212.75V46.75H217.125V51.125H221.5V46.75H225.875V38H234.625V46.75H230.25V51.125H225.875V55.5H230.25V59.875H234.625V68.625H225.875V59.875H221.5V55.5H217.125V59.875H212.75V68.625H204ZM239 68.625V38H269.625V42.375H247.75V51.125H265.25V55.5H247.75V64.25H269.625V68.625H239ZM278.375 68.625V38H287.125V64.25H304.625V68.625H278.375ZM134 113.625V83H160.25V87.375H164.625V100.5H160.25V104.875H142.75V113.625H134ZM142.75 100.5H155.875V87.375H142.75V100.5ZM169 113.625V91.75H173.375V87.375H177.75V83H190.875V87.375H195.25V91.75H199.625V113.625H190.875V104.875H177.75V113.625H169ZM177.75 100.5H190.875V91.75H186.5V87.375H182.125V91.75H177.75V100.5ZM204 113.625V83H230.25V87.375H234.625V100.5H225.875V104.875H230.25V109.25H234.625V113.625H221.5V109.25H217.125V104.875H212.75V113.625H204ZM212.75 100.5H221.5V96.125H225.875V87.375H212.75V100.5ZM239 113.625V91.75H243.375V87.375H247.75V83H260.875V87.375H265.25V91.75H269.625V113.625H260.875V104.875H247.75V113.625H239ZM247.75 100.5H260.875V91.75H256.5V87.375H252.125V91.75H247.75V100.5ZM274 113.625V83H295.875V87.375H300.25V91.75H304.625V104.875H300.25V109.25H295.875V113.625H274ZM282.75 109.25H291.5V104.875H295.875V91.75H291.5V87.375H282.75V109.25ZM313.375 113.625V109.25H322.125V87.375H313.375V83H339.625V87.375H330.875V109.25H339.625V113.625H313.375ZM348.375 113.625V109.25H344V104.875H352.75V109.25H365.875V100.5H348.375V96.125H344V87.375H348.375V83H370.25V87.375H374.625V91.75H365.875V87.375H352.75V96.125H370.25V100.5H374.625V109.25H370.25V113.625H348.375ZM379 113.625V83H409.625V87.375H387.75V96.125H405.25V100.5H387.75V109.25H409.625V113.625H379Z" fill="#FAFAFA"/>
<path d="M40.1667 53H31.8334V44.6667H40.1667V53ZM81.8334 53H90.1667V44.6667H81.8334V53ZM106.833 78V103H98.5V86.3333H90.1667V103H81.8334V94.6667H40.1667V103H31.8334V86.3333H23.5V103H15.1667V78H23.5V69.6667H31.8334V61.3333H40.1667V53H48.5V61.3333H73.5V53H81.8334V61.3333H90.1667V69.6667H98.5V78H106.833ZM73.5 69.6667V78H81.8334V69.6667H73.5ZM40.1667 78H48.5V69.6667H40.1667V78ZM56.8334 103H40.1667V111.333H56.8334V103ZM81.8334 103H65.1667V111.333H81.8334V103Z" fill="white"/>
</svg>
