<svg width="100" height="100" viewBox="0 0 100 100" fill="none" xmlns="http://www.w3.org/2000/svg">
<path d="M29 25.3333H20.6667V17H29V25.3333ZM70.6667 25.3333H79V17H70.6667V25.3333ZM95.6667 50.3333V75.3333H87.3333V58.6667H79V75.3333H70.6667V67H29V75.3333H20.6667V58.6667H12.3333V75.3333H4V50.3333H12.3333V42H20.6667V33.6667H29V25.3333H37.3333V33.6667H62.3333V25.3333H70.6667V33.6667H79V42H87.3333V50.3333H95.6667ZM62.3333 42V50.3333H70.6667V42H62.3333ZM29 50.3333H37.3333V42H29V50.3333ZM45.6667 75.3333H29V83.6667H45.6667V75.3333ZM70.6667 75.3333H54V83.6667H70.6667V75.3333Z" fill="#0055BA"/>
</svg>
